PathFileType  4	(X/Y/Z) C:\Users\antoi\Documents\MyRepositories\mobilecap\ResultsAnalysis
DataRate	CameraRate	NumFrames	NumMarkers	Units	OrigDataRate	OrigDataStartFrame	OrigNumFrames
100.0	100.0	4	51	mm	100.0	61	160
Frame#	Time	r_knee			r_shank_antsup			r_ankle			r_calc			r_5meta			r_toe			L_knee			L_shank_antsup			L_ankle			L_calc			L_5meta			L_toe			r_sh2			r_sh3			r_sh4			L_sh2			L_sh3			r_thigh1			r_thigh2			r_thigh3			r_thigh4			r_thigh5			L_thigh1			L_thigh2			L_thigh3			L_thigh4			r.ASIS			r.PSIS			L.ASIS			L.PSIS			C7			R_Shoulder			L_Shoulder			R_Sternum			L_Sternum			R_humerus			R_elbow_med			R_elbow_lat			R_forearm			R_wrist_radius			R_wrist_ulna			L_humerus			L_elbow_med			L_elbow_lat			L_forearm			L_wrist_radius			L_wrist_ulna			R_HJC			L_HJC			R_HJC_reg			L_HJC_reg			
		X1	Y1	Z1	X2	Y2	Z2	X3	Y3	Z3	X4	Y4	Z4	X5	Y5	Z5	X6	Y6	Z6	X7	Y7	Z7	X8	Y8	Z8	X9	Y9	Z9	X10	Y10	Z10	X11	Y11	Z11	X12	Y12	Z12	X13	Y13	Z13	X14	Y14	Z14	X15	Y15	Z15	X16	Y16	Z16	X17	Y17	Z17	X18	Y18	Z18	X19	Y19	Z19	X20	Y20	Z20	X21	Y21	Z21	X22	Y22	Z22	X23	Y23	Z23	X24	Y24	Z24	X25	Y25	Z25	X26	Y26	Z26	X27	Y27	Z27	X28	Y28	Z28	X29	Y29	Z29	X30	Y30	Z30	X31	Y31	Z31	X32	Y32	Z32	X33	Y33	Z33	X34	Y34	Z34	X35	Y35	Z35	X36	Y36	Z36	X37	Y37	Z37	X38	Y38	Z38	X39	Y39	Z39	X40	Y40	Z40	X41	Y41	Z41	X42	Y42	Z42	X43	Y43	Z43	X44	Y44	Z44	X45	Y45	Z45	X46	Y46	Z46	X47	Y47	Z47	X48	Y48	Z48	X49	Y49	Z49	X50	Y50	Z50	X51	Y51	Z51	

61	0.60000000	331.90605	528.69378	-128.40559	323.85834	397.04890	-147.81424	131.76552	111.64310	-180.51104	62.61164	84.01645	-230.95366	250.94396	35.51881	-123.66203	296.05107	56.66792	-192.39174	590.52204	529.46200	-460.70568	666.26496	453.55604	-459.56067	738.51707	98.25705	-468.17970	697.48900	51.14614	-407.96309	895.74628	92.25147	-505.00140	913.70306	135.81374	-443.56443	290.05468	291.35353	-175.29725	259.31419	404.92101	-105.82110	229.89048	292.04120	-115.81451	586.70956	419.51548	-485.12914	651.79384	319.41223	-508.92912	499.51478	724.10317	-127.93162	470.19714	618.58752	-147.46506	426.14655	596.50982	-100.89316	408.02553	734.77165	-61.17786	378.14373	624.03331	-88.47784	577.79223	788.25871	-460.10715	631.33396	661.23954	-455.23522	480.15429	744.13944	-495.57682	533.83846	617.09363	-484.26715	526.28052	1012.61135	-123.81550	324.12221	1056.99647	-211.97084	526.93321	1000.63599	-390.30568	318.95999	1051.84901	-309.13728	418.78251	1535.61977	-384.45060	492.16310	1515.04501	-188.97749	466.27298	1424.20394	-539.41988	548.76568	1450.32093	-342.69345	543.68588	1433.98489	-387.47047	498.49327	1368.07400	-77.96126	400.03703	1150.16949	-56.56470	438.77429	1186.08500	9.07898	553.35796	1052.66211	2.11426	606.45898	943.57003	11.72042	585.09476	933.40085	47.74734	427.05226	1242.73968	-585.71330	329.10122	1057.22706	-494.28090	337.82415	1059.60881	-575.16938	429.21540	916.98824	-570.28049	444.41720	798.62253	-586.94618	401.31913	795.83011	-609.13032	438.74661	937.07367	-157.03343	440.64815	916.55575	-369.42681	451.19944	938.29956	-153.83555	441.87488	928.99704	-329.41234	
62	0.61000000	339.33889	527.90848	-128.80687	329.60802	396.25150	-148.02755	132.97929	113.73832	-180.60634	63.57901	87.08473	-231.04410	251.22590	35.45949	-123.69428	296.51241	56.47181	-192.29832	605.60276	529.33236	-461.81028	680.16394	451.21842	-460.26730	743.19937	95.11233	-467.18661	700.06956	50.13948	-407.32081	899.81652	84.51533	-502.81114	918.91879	127.39564	-441.17340	293.90524	290.96308	-175.50533	265.10586	405.17113	-106.18171	233.91644	292.77386	-116.06045	599.71204	419.02261	-485.52716	662.27124	317.00897	-508.38819	508.60476	722.06933	-127.99173	478.49518	616.70336	-147.42657	434.19987	595.09320	-101.01091	416.75142	733.43013	-61.64504	386.16096	622.72277	-88.77985	592.07321	789.23664	-460.14768	647.09845	662.83257	-455.26229	495.23418	743.97900	-496.85590	550.39589	617.56954	-485.41380	537.69664	1010.52370	-124.27316	335.95567	1055.59010	-212.86473	539.46432	999.19437	-390.99194	331.04564	1050.40716	-309.94596	429.98973	1532.32736	-390.64846	503.08242	1514.69990	-194.74243	477.98541	1418.71371	-543.89858	560.10504	1447.87239	-347.49638	555.11519	1430.86198	-392.06695	508.69119	1368.94890	-81.88375	409.54024	1151.49381	-58.85990	448.03303	1187.94034	6.64843	562.35599	1054.12173	1.17583	615.14248	945.01451	11.91481	593.69704	935.23786	47.99584	440.14221	1236.64983	-588.64209	343.24936	1051.12568	-496.43716	352.10981	1053.11388	-577.30697	443.16777	910.52358	-571.68362	458.23008	791.98332	-587.69607	415.15666	789.18712	-609.85173	450.27743	935.21783	-157.92443	452.77744	915.19919	-370.35643	462.61008	936.81836	-154.49838	453.72522	927.43559	-330.23352	
63	0.62000000	347.12066	527.24707	-129.22160	335.64112	395.58321	-148.27648	134.41768	116.14495	-180.69686	64.72330	90.62036	-231.11687	251.56963	35.42100	-123.73998	297.07085	56.24746	-192.21504	620.23106	529.34595	-463.07412	693.82722	449.24733	-461.09701	747.72721	92.45001	-466.64904	702.48124	50.01399	-407.05480	903.50678	76.56892	-500.80508	923.92369	118.95099	-439.12267	298.06531	290.76463	-175.69294	271.21088	405.59273	-106.58114	238.17749	293.72435	-116.32213	612.44649	418.79903	-486.07313	672.60265	315.03334	-508.16551	517.94596	720.20796	-128.14244	487.06045	614.98838	-147.48903	442.54581	593.82451	-101.21718	425.65215	732.16144	-62.15380	394.49623	621.55411	-89.18392	605.95363	790.01985	-460.62055	662.36064	664.18212	-456.00616	509.67014	743.70398	-497.91584	566.08309	617.89216	-486.24817	549.27918	1008.61564	-124.79787	347.94187	1054.30098	-213.91766	552.26036	997.98070	-391.75760	343.31397	1049.14718	-310.95435	441.31722	1529.07444	-396.97431	514.06313	1514.44022	-200.65505	489.83876	1413.27228	-548.44334	571.55222	1445.51412	-352.39119	566.66323	1427.83308	-396.75182	518.91500	1369.96542	-85.92624	418.94023	1153.03424	-61.22132	457.22106	1190.00143	4.13533	571.18989	1055.72189	0.18411	623.62100	946.58894	12.07580	602.09367	937.22341	48.21365	453.40919	1230.62793	-591.63365	357.59793	1045.08459	-498.69444	366.64315	1046.68292	-579.54416	457.32770	904.10731	-573.15779	472.21745	785.40136	-588.48618	429.12157	782.60851	-610.63046	461.98164	933.52174	-158.95777	465.18570	914.04902	-371.43005	474.24077	935.42007	-155.30323	465.85287	926.07694	-331.21136	
64	0.63000000	355.28761	526.75151	-129.61382	341.98986	395.08479	-148.53386	136.12985	118.92246	-180.78422	66.10530	94.67584	-231.18801	251.97819	35.42956	-123.80244	297.75006	55.99601	-192.14313	634.39623	529.59432	-464.59393	707.28981	447.77593	-462.16063	752.20038	90.37939	-466.67048	705.00577	50.75419	-407.19013	906.99385	68.60302	-499.14582	928.86318	110.73565	-437.62584	302.59180	290.81145	-175.84151	277.65682	406.23200	-106.99249	242.72141	294.93846	-116.58451	624.99343	418.94268	-486.89947	682.87367	313.64347	-508.47223	527.55018	718.58330	-128.35410	495.93468	613.50398	-147.62040	451.20827	592.76355	-101.47313	434.73666	731.04009	-62.66115	403.19387	620.59757	-89.63766	619.33105	790.57216	-461.65692	676.93898	665.22034	-457.58321	523.32439	743.31299	-498.81485	580.69647	618.04261	-486.84129	560.99941	1006.97824	-125.32267	360.05814	1053.21174	-215.12254	565.15191	996.94679	-392.44484	355.75906	1048.16740	-312.15765	452.76417	1525.90325	-403.42551	525.07314	1514.30458	-206.70129	501.82604	1407.91812	-553.05122	583.09114	1443.30265	-357.37715	578.32359	1424.95127	-401.52189	529.15025	1371.15127	-90.08216	428.24670	1154.81543	-63.64110	466.36048	1192.29674	1.53783	579.87577	1057.49207	-0.86230	631.89969	948.31823	12.20153	610.29493	939.38663	48.40062	466.85641	1224.71880	-594.68683	372.14113	1039.15783	-501.02327	381.41410	1040.36706	-581.85922	471.72041	897.79954	-574.69118	486.37164	778.92902	-589.30789	443.21134	776.14804	-611.45210	473.76200	932.09106	-160.02340	477.76540	913.09263	-372.52600	486.00337	934.11998	-156.19276	478.20257	924.96777	-332.23374	
